<?xml version="1.0" encoding="UTF-8"?>
<svg xmlns="http://www.w3.org/2000/svg" viewBox="0 0 1200 675" role="img" aria-labelledby="title desc">
  <title id="title">Sports-drink moment marketing</title>
  <desc id="desc">Always-on codes ready for live digital activation.</desc>

  <defs>
    <linearGradient id="warm" x1="0" y1="0" x2="1" y2="1">
      <stop offset="0%" stop-color="#fffaf4"/>
      <stop offset="100%" stop-color="#f7f7f4"/>
    </linearGradient>
    <linearGradient id="orangeBand" x1="0" y1="0" x2="1" y2="1">
      <stop offset="0%" stop-color="#f08e31"/>
      <stop offset="100%" stop-color="#c66515"/>
    </linearGradient>
    <filter id="shadow" x="-10%" y="-10%" width="120%" height="130%">
      <feDropShadow dx="0" dy="18" stdDeviation="20" flood-color="#111111" flood-opacity="0.14"/>
    </filter>
    <style>
      .bg{fill:url(#warm)}
      .panel{fill:#fff;stroke:#e5e5e5;stroke-width:2;filter:url(#shadow)}
      .dark{fill:#111}
      .soft{fill:#fafaf9}
      .orange{fill:#f08e31}
      .orange2{fill:#c66515}
      .green{fill:#1f8a4c}
      .red{fill:#b3261e}
      .amber{fill:#9a6500}
      .line{stroke:#d8d8d8;stroke-width:4;fill:none;stroke-linecap:round;stroke-linejoin:round}
      .line-orange{stroke:#f08e31;stroke-width:6;fill:none;stroke-linecap:round;stroke-linejoin:round}
      .line-green{stroke:#1f8a4c;stroke-width:6;fill:none;stroke-linecap:round;stroke-linejoin:round}
      .kicker{font:800 24px Inter,Arial,sans-serif;letter-spacing:.12em;text-transform:uppercase;fill:#c66515}
      .title{font:850 58px Inter,Arial,sans-serif;fill:#1a1a1a}
      .subtitle{font:550 31px Inter,Arial,sans-serif;fill:#4a4a4a}
      .chip{font:800 24px Inter,Arial,sans-serif;fill:#fff}
      .mono{font:850 30px "SFMono-Regular","Roboto Mono",Consolas,monospace;letter-spacing:.08em;fill:#1a1a1a}
      .small{font:750 22px Inter,Arial,sans-serif;fill:#6b6b6b}
      .tiny{font:750 17px Inter,Arial,sans-serif;fill:#6b6b6b}
    </style>
  </defs>
  <rect class="bg" width="1200" height="675" rx="28"/>
  <circle cx="1004" cy="110" r="210" fill="#f08e31" opacity=".10"/>
  <circle cx="1040" cy="550" r="170" fill="#111" opacity=".05"/>
  <rect x="64" y="82" width="620" height="510" rx="28" class="panel"/>
  <rect x="104" y="122" width="180" height="48" rx="24" fill="url(#orangeBand)"/>
  <text x="128" y="154" class="chip">Anonymised</text>
  <text x="104" y="242" class="title">Sports-drink</text>
<text x="104" y="308" class="title">moment marketing</text>
  <text x="106" y="430" class="subtitle">Always-on codes ready for live</text>
<text x="106" y="470" class="subtitle">digital activation.</text>
  
      <g transform="translate(760 100)">
        <path d="M95 0h92l15 86q56 55 56 148v170q0 45-45 45H69q-45 0-45-45V234q0-93 56-148Z" fill="#fff" stroke="#d8d8d8" stroke-width="4"/>
        <rect x="46" y="172" width="190" height="112" rx="18" fill="#111"/>
        <path d="M70 244c58-70 106-70 146 0" class="line-orange"/>
        <rect x="68" y="318" width="146" height="46" rx="9" fill="#fffaf4" stroke="#f08e31" stroke-width="4"/>
        <text x="88" y="350" class="mono">WIN24</text>
      </g>
      <path d="M690 458c65-130 116-198 198-254" class="line-orange"/>
</svg>