<svg xmlns="http://www.w3.org/2000/svg" viewBox="0 0 1600 1000" role="img" aria-labelledby="title desc">
  <title id="title">Consumer Support Panel illustration</title>
  <desc id="desc">An illustration-only mock-up of the Hive IP Consumer Support Panel showing code status, consumer history, risk score and a replacement-code action with sample 12-character codes.</desc>
  <defs>
    <filter id="shadow" x="-8%" y="-8%" width="116%" height="124%">
      <feDropShadow dx="0" dy="18" stdDeviation="24" flood-color="#111111" flood-opacity="0.12"/>
    </filter>
    <style>
      .bg{fill:#fafaf9}
      .app{fill:#fff;stroke:#e5e5e5;stroke-width:2;filter:url(#shadow)}
      .nav{fill:#111}
      .soft{fill:#fafaf9}
      .warm{fill:#fbf6ef}
      .orange{fill:#f08e31}
      .green{fill:#1f8a4c}
      .red{fill:#b3261e}
      .amber{fill:#9a6500}
      .line{stroke:#e5e5e5;stroke-width:2}
      .title{font:800 34px Inter,Arial,sans-serif;fill:#1a1a1a}
      .h2{font:800 26px Inter,Arial,sans-serif;fill:#1a1a1a}
      .body{font:550 21px Inter,Arial,sans-serif;fill:#4a4a4a}
      .small{font:700 18px Inter,Arial,sans-serif;fill:#6b6b6b}
      .tiny{font:700 15px Inter,Arial,sans-serif;fill:#6b6b6b}
      .note{font:800 15px Inter,Arial,sans-serif;letter-spacing:.06em;text-transform:uppercase;fill:#8a5a15}
      .chip{font:800 16px Inter,Arial,sans-serif;letter-spacing:.08em;text-transform:uppercase}
      .mono{font:850 24px "SFMono-Regular","Roboto Mono",Consolas,monospace;letter-spacing:.08em;fill:#1a1a1a}
      .smallmono{font:800 16px "SFMono-Regular","Roboto Mono",Consolas,monospace;letter-spacing:.03em;fill:#4a4a4a}
    </style>
  </defs>

  <rect class="bg" width="1600" height="1000" rx="34"/>
  <rect x="70" y="72" width="1460" height="850" rx="28" class="app"/>

  <rect x="70" y="72" width="1460" height="92" rx="28" class="nav"/>
  <rect x="70" y="128" width="1460" height="36" class="nav"/>
  <rect x="112" y="103" width="42" height="42" rx="6" class="orange"/>
  <text x="168" y="132" font-family="Inter,Arial,sans-serif" font-weight="850" font-size="28" fill="#fff">Hive IP Support Panel</text>
  <rect x="1162" y="100" width="230" height="42" rx="21" fill="#1e1e1e" stroke="#3a3a3a"/>
  <text x="1186" y="128" class="tiny" fill="#f5f5f5">Campaign: Summer Rewards</text>
  <circle cx="1448" cy="121" r="21" fill="#f08e31"/>

  <g transform="translate(112 210)">
    <text x="0" y="0" class="title">Code check</text>
    <text x="0" y="38" class="body">Enter a code to see validity, usage, consumer history and audit actions.</text>
    <rect x="0" y="56" width="302" height="32" rx="16" fill="#fff4e7" stroke="#f0c695"/>
    <text x="18" y="78" class="note">Illustration only - sample data</text>
    <rect x="0" y="106" width="690" height="78" rx="16" fill="#fff" stroke="#d8d8d8" stroke-width="2"/>
    <text x="28" y="155" class="mono">HW4G9WF34E15</text>
    <rect x="514" y="120" width="150" height="50" rx="25" fill="#c66515"/>
    <text x="557" y="152" font-family="Inter,Arial,sans-serif" font-weight="850" font-size="18" fill="#fff">Check</text>

    <rect x="0" y="224" width="690" height="236" rx="22" fill="#fffaf4" stroke="#f08e31" stroke-width="3"/>
    <rect x="28" y="254" width="132" height="34" rx="17" fill="#e5f4ec"/>
    <text x="48" y="277" class="chip" fill="#1f8a4c">Valid code</text>
    <text x="28" y="338" class="h2">Unused, eligible for campaign entry</text>
    <text x="28" y="380" class="body">Generated by ACG 2174 on Line 3</text>
    <text x="28" y="416" class="body">Pack date: 27 Jan 2026  |  SKU: Chilli Heatwave 150g</text>
    <rect x="445" y="316" width="190" height="96" rx="20" fill="#fff" stroke="#e5e5e5"/>
    <text x="485" y="354" class="small">Risk score</text>
    <text x="494" y="398" font-family="Inter,Arial,sans-serif" font-weight="900" font-size="42" fill="#1f8a4c">Low</text>
  </g>

  <g transform="translate(860 210)">
    <text x="0" y="0" class="title">Consumer</text>
    <rect x="0" y="46" width="560" height="192" rx="22" fill="#fff" stroke="#e5e5e5" stroke-width="2"/>
    <circle cx="58" cy="104" r="34" fill="#fbf1e5"/>
    <text x="46" y="116" font-family="Inter,Arial,sans-serif" font-weight="900" font-size="30" fill="#c66515">JM</text>
    <text x="112" y="100" class="h2">Jamie M.</text>
    <text x="112" y="136" class="body">4 valid entries | 0 invalid | UK market</text>
    <line x1="28" y1="164" x2="532" y2="164" class="line"/>
    <text x="28" y="202" class="small">Last activity: 18 minutes ago</text>

    <rect x="0" y="272" width="560" height="304" rx="22" fill="#fff" stroke="#e5e5e5" stroke-width="2"/>
    <text x="28" y="322" class="h2">Recent history</text>
    <g class="small">
      <text x="28" y="374" class="smallmono">HW4G9WF34E15</text>
      <text x="255" y="374" fill="#1f8a4c">Checked</text>
      <text x="425" y="374">Today</text>
      <text x="28" y="426" class="smallmono">HW3T71F24A1B</text>
      <text x="255" y="426" fill="#1f8a4c">Redeemed</text>
      <text x="425" y="426">Yesterday</text>
      <text x="28" y="478" class="smallmono">HWZ261FMAC94</text>
      <text x="255" y="478" fill="#9a6500">Replaced</text>
      <text x="425" y="478">28 Apr</text>
      <text x="28" y="530" class="smallmono">HWA7Q2M9T6KD</text>
      <text x="255" y="530" fill="#b3261e">Invalid</text>
      <text x="425" y="530">21 Apr</text>
    </g>
  </g>

  <g transform="translate(112 704)">
    <rect width="1308" height="156" rx="24" fill="#fafaf9" stroke="#e5e5e5" stroke-width="2"/>
    <text x="30" y="52" class="h2">Actions</text>
    <rect x="30" y="82" width="220" height="48" rx="24" fill="#111"/>
    <text x="70" y="113" font-family="Inter,Arial,sans-serif" font-weight="850" font-size="18" fill="#fff">Issue replacement</text>
    <rect x="274" y="82" width="176" height="48" rx="24" fill="#fff" stroke="#d8d8d8"/>
    <text x="318" y="113" font-family="Inter,Arial,sans-serif" font-weight="850" font-size="18" fill="#1a1a1a">Add note</text>
    <rect x="474" y="82" width="188" height="48" rx="24" fill="#fff" stroke="#d8d8d8"/>
    <text x="512" y="113" font-family="Inter,Arial,sans-serif" font-weight="850" font-size="18" fill="#1a1a1a">Escalate</text>
    <text x="760" y="113" class="small">Actions are timestamped, attributed and available in the audit log.</text>
  </g>
</svg>
