<?xml version="1.0" encoding="UTF-8"?>
<svg xmlns="http://www.w3.org/2000/svg" viewBox="0 0 1200 675" role="img" aria-labelledby="title desc">
  <title id="title">Outside-pack codes and AI vision</title>
  <desc id="desc">A practical answer to the in-store copying objection.</desc>

  <defs>
    <linearGradient id="warm" x1="0" y1="0" x2="1" y2="1">
      <stop offset="0%" stop-color="#fffaf4"/>
      <stop offset="100%" stop-color="#f7f7f4"/>
    </linearGradient>
    <linearGradient id="orangeBand" x1="0" y1="0" x2="1" y2="1">
      <stop offset="0%" stop-color="#f08e31"/>
      <stop offset="100%" stop-color="#c66515"/>
    </linearGradient>
    <filter id="shadow" x="-10%" y="-10%" width="120%" height="130%">
      <feDropShadow dx="0" dy="18" stdDeviation="20" flood-color="#111111" flood-opacity="0.14"/>
    </filter>
    <style>
      .bg{fill:url(#warm)}
      .panel{fill:#fff;stroke:#e5e5e5;stroke-width:2;filter:url(#shadow)}
      .dark{fill:#111}
      .soft{fill:#fafaf9}
      .orange{fill:#f08e31}
      .orange2{fill:#c66515}
      .green{fill:#1f8a4c}
      .red{fill:#b3261e}
      .amber{fill:#9a6500}
      .line{stroke:#d8d8d8;stroke-width:4;fill:none;stroke-linecap:round;stroke-linejoin:round}
      .line-orange{stroke:#f08e31;stroke-width:6;fill:none;stroke-linecap:round;stroke-linejoin:round}
      .line-green{stroke:#1f8a4c;stroke-width:6;fill:none;stroke-linecap:round;stroke-linejoin:round}
      .kicker{font:800 24px Inter,Arial,sans-serif;letter-spacing:.12em;text-transform:uppercase;fill:#c66515}
      .title{font:850 58px Inter,Arial,sans-serif;fill:#1a1a1a}
      .subtitle{font:550 31px Inter,Arial,sans-serif;fill:#4a4a4a}
      .chip{font:800 24px Inter,Arial,sans-serif;fill:#fff}
      .mono{font:850 30px "SFMono-Regular","Roboto Mono",Consolas,monospace;letter-spacing:.08em;fill:#1a1a1a}
      .small{font:750 22px Inter,Arial,sans-serif;fill:#6b6b6b}
      .tiny{font:750 17px Inter,Arial,sans-serif;fill:#6b6b6b}
    </style>
  </defs>
  <rect class="bg" width="1200" height="675" rx="28"/>
  <path d="M690 0h510v675H760Q650 550 690 0Z" fill="#f08e31" opacity=".10"/>
  <rect x="64" y="82" width="590" height="510" rx="28" class="panel"/>
  <text x="104" y="150" class="kicker">Fraud and AI</text>
  <text x="104" y="242" class="title">Outside-pack codes</text>
<text x="104" y="306" class="title">and AI vision</text>
  <text x="106" y="430" class="subtitle">A practical answer to the</text>
<text x="106" y="469" class="subtitle">in-store copying objection.</text>
  
      
  <g transform="translate(790 135)">
    <rect width="170" height="300" rx="28" fill="#fff" stroke="#bcbec0" stroke-width="5"/>
    <rect x="23.8" y="42.00000000000001" width="122.39999999999999" height="168.00000000000003" rx="8" fill="#fafaf9" stroke="#e5e5e5" stroke-width="3"/>
    <rect x="42.5" y="78" width="27.2" height="27.2" fill="#111"/>
    <rect x="88.4" y="78" width="27.2" height="27.2" fill="#111"/>
    <rect x="42.5" y="144" width="27.2" height="27.2" fill="#111"/>
    <rect x="105.4" y="144" width="27.2" height="27.2" fill="#111"/>
    <rect x="73.1" y="206.99999999999997" width="23.8" height="23.8" fill="#111"/>
    <circle cx="85" cy="258" r="7.6499999999999995" fill="#bcbec0"/>
  </g>
      
  <g transform="translate(965 195)">
    <rect width="130" height="170" rx="24" fill="#fff" stroke="#d8d8d8" stroke-width="4"/>
    <rect x="18.200000000000003" y="68" width="93.6" height="40.8" rx="10" fill="#fffaf4" stroke="#f08e31" stroke-width="4"/>
    <text x="26" y="93.50000000000001" class="mono" font-size="18">A1N24</text>
    <path d="M15.6 30.599999999999998h98.8" class="line"/>
    <path d="M23.4 125.8h75.39999999999999" class="line"/>
  </g>
      <path d="M785 115h210q54 0 82 40" class="line-orange"/>
      <rect x="707" y="452" width="360" height="74" rx="37" fill="#e5f4ec" stroke="#1f8a4c" stroke-width="4"/>
      <text x="760" y="498" class="small" fill="#1f8a4c">Store or home check</text>
</svg>